<svg width="24" height="24" viewBox="0 0 24 24" fill="none" xmlns="http://www.w3.org/2000/svg">
<path d="M2.41149 5.60009C2.30548 5.59859 2.20023 5.61817 2.10186 5.6577C2.00348 5.69723 1.91395 5.75592 1.83845 5.83036C1.76295 5.90479 1.70301 5.99349 1.66209 6.0913C1.62117 6.1891 1.6001 6.29407 1.6001 6.40009C1.6001 6.50611 1.62117 6.61107 1.66209 6.70888C1.70301 6.80668 1.76295 6.89538 1.83845 6.96981C1.91395 7.04425 2.00348 7.10294 2.10186 7.14247C2.20023 7.182 2.30548 7.20159 2.41149 7.20009H21.6115C21.7175 7.20159 21.8228 7.182 21.9211 7.14247C22.0195 7.10294 22.109 7.04425 22.1845 6.96981C22.26 6.89538 22.32 6.80668 22.3609 6.70888C22.4018 6.61107 22.4229 6.50611 22.4229 6.40009C22.4229 6.29407 22.4018 6.1891 22.3609 6.0913C22.32 5.99349 22.26 5.90479 22.1845 5.83036C22.109 5.75592 22.0195 5.69723 21.9211 5.6577C21.8228 5.61817 21.7175 5.59859 21.6115 5.60009H2.41149ZM2.41149 11.2001C2.30548 11.1986 2.20023 11.2182 2.10186 11.2577C2.00348 11.2972 1.91395 11.3559 1.83845 11.4304C1.76295 11.5048 1.70301 11.5935 1.66209 11.6913C1.62117 11.7891 1.6001 11.8941 1.6001 12.0001C1.6001 12.1061 1.62117 12.2111 1.66209 12.3089C1.70301 12.4067 1.76295 12.4954 1.83845 12.5698C1.91395 12.6442 2.00348 12.7029 2.10186 12.7425C2.20023 12.782 2.30548 12.8016 2.41149 12.8001H21.6115C21.7175 12.8016 21.8228 12.782 21.9211 12.7425C22.0195 12.7029 22.109 12.6442 22.1845 12.5698C22.26 12.4954 22.32 12.4067 22.3609 12.3089C22.4018 12.2111 22.4229 12.1061 22.4229 12.0001C22.4229 11.8941 22.4018 11.7891 22.3609 11.6913C22.32 11.5935 22.26 11.5048 22.1845 11.4304C22.109 11.3559 22.0195 11.2972 21.9211 11.2577C21.8228 11.2182 21.7175 11.1986 21.6115 11.2001H2.41149ZM2.41149 16.8001C2.30548 16.7986 2.20023 16.8182 2.10186 16.8577C2.00348 16.8972 1.91395 16.9559 1.83845 17.0304C1.76295 17.1048 1.70301 17.1935 1.66209 17.2913C1.62117 17.3891 1.6001 17.4941 1.6001 17.6001C1.6001 17.7061 1.62117 17.8111 1.66209 17.9089C1.70301 18.0067 1.76295 18.0954 1.83845 18.1698C1.91395 18.2443 2.00348 18.3029 2.10186 18.3425C2.20023 18.382 2.30548 18.4016 2.41149 18.4001H21.6115C21.7175 18.4016 21.8228 18.382 21.9211 18.3425C22.0195 18.3029 22.109 18.2443 22.1845 18.1698C22.26 18.0954 22.32 18.0067 22.3609 17.9089C22.4018 17.8111 22.4229 17.7061 22.4229 17.6001C22.4229 17.4941 22.4018 17.3891 22.3609 17.2913C22.32 17.1935 22.26 17.1048 22.1845 17.0304C22.109 16.9559 22.0195 16.8972 21.9211 16.8577C21.8228 16.8182 21.7175 16.7986 21.6115 16.8001H2.41149Z" fill="black"/>
</svg>
